<svg xmlns="http://www.w3.org/2000/svg" width="201.50999999999996" height="35" viewBox="0 0 201.50999999999996 35"><rect class="svg__rect" x="0" y="0" width="73.6" height="35" fill="#FFD43B"/><rect class="svg__rect" x="71.6" y="0" width="129.90999999999997" height="35" fill="#306998"/><path class="svg__text" d="M14.08 19.16L14.08 19.16L14.08 13.47L15.56 13.47L15.56 19.18Q15.56 20.03 15.99 20.48Q16.43 20.93 17.27 20.93L17.27 20.93Q18.98 20.93 18.98 19.13L18.98 19.13L18.98 13.47L20.46 13.47L20.46 19.17Q20.46 20.53 19.59 21.32Q18.72 22.12 17.27 22.12L17.27 22.12Q15.81 22.12 14.94 21.33Q14.08 20.55 14.08 19.16ZM24.59 19.42L24.59 19.42L26.08 19.42Q26.08 20.15 26.56 20.55Q27.04 20.95 27.93 20.95L27.93 20.95Q28.71 20.95 29.10 20.63Q29.49 20.32 29.49 19.80L29.49 19.80Q29.49 19.24 29.09 18.94Q28.70 18.63 27.66 18.32Q26.63 18.01 26.02 17.63L26.02 17.63Q24.86 16.90 24.86 15.72L24.86 15.72Q24.86 14.69 25.70 14.02Q26.54 13.35 27.88 13.35L27.88 13.35Q28.77 13.35 29.47 13.68Q30.17 14.01 30.56 14.61Q30.96 15.22 30.96 15.96L30.96 15.96L29.49 15.96Q29.49 15.29 29.07 14.91Q28.65 14.54 27.87 14.54L27.87 14.54Q27.14 14.54 26.74 14.85Q26.34 15.16 26.34 15.71L26.34 15.71Q26.34 16.18 26.77 16.50Q27.21 16.81 28.20 17.10Q29.20 17.40 29.80 17.78Q30.41 18.16 30.69 18.65Q30.97 19.13 30.97 19.79L30.97 19.79Q30.97 20.86 30.15 21.49Q29.33 22.12 27.93 22.12L27.93 22.12Q27.01 22.12 26.23 21.77Q25.46 21.43 25.02 20.83Q24.59 20.22 24.59 19.42ZM36.82 22L35.35 22L35.35 13.47L36.82 13.47L36.82 22ZM43.12 22L41.63 22L41.63 13.47L43.12 13.47L46.93 19.54L46.93 13.47L48.40 13.47L48.40 22L46.92 22L43.12 15.95L43.12 22ZM52.89 18.13L52.89 18.13L52.89 17.46Q52.89 15.53 53.82 14.44Q54.75 13.35 56.40 13.35L56.40 13.35Q57.83 13.35 58.67 14.05Q59.50 14.76 59.67 16.08L59.67 16.08L58.22 16.08Q57.98 14.54 56.43 14.54L56.43 14.54Q55.44 14.54 54.92 15.26Q54.40 15.98 54.38 17.37L54.38 17.37L54.38 18.02Q54.38 19.40 54.97 20.17Q55.55 20.93 56.59 20.93L56.59 20.93Q57.72 20.93 58.20 20.42L58.20 20.42L58.20 18.75L56.45 18.75L56.45 17.62L59.68 17.62L59.68 20.89Q59.22 21.50 58.40 21.81Q57.58 22.12 56.53 22.12L56.53 22.12Q55.46 22.12 54.64 21.63Q53.81 21.14 53.36 20.24Q52.91 19.33 52.89 18.13Z" fill="#FFFFFF"/><path class="svg__text" d="M90.33 22L85.79 22L85.79 13.60L90.09 13.60Q91.69 13.60 92.53 14.19Q93.38 14.79 93.38 15.79L93.38 15.79Q93.38 16.39 93.08 16.87Q92.78 17.34 92.24 17.62L92.24 17.62Q92.97 17.87 93.37 18.41Q93.78 18.94 93.78 19.70L93.78 19.70Q93.78 20.80 92.89 21.40Q92.00 22 90.33 22L90.33 22ZM88.14 18.58L88.14 20.28L90.14 20.28Q91.38 20.28 91.38 19.43L91.38 19.43Q91.38 18.58 90.14 18.58L90.14 18.58L88.14 18.58ZM88.14 15.31L88.14 16.94L89.77 16.94Q90.97 16.94 90.97 16.12L90.97 16.12Q90.97 15.31 89.77 15.31L89.77 15.31L88.14 15.31ZM100.88 22L98.50 22L98.50 13.60L100.88 13.60L100.88 22ZM105.62 17.80L105.62 17.80Q105.62 16.55 106.23 15.55Q106.83 14.56 107.89 14.00Q108.96 13.43 110.29 13.43L110.29 13.43Q111.62 13.43 112.68 14.00Q113.74 14.56 114.35 15.55Q114.96 16.55 114.96 17.80L114.96 17.80Q114.96 19.05 114.35 20.04Q113.74 21.04 112.68 21.60Q111.62 22.17 110.29 22.17L110.29 22.17Q108.96 22.17 107.89 21.60Q106.83 21.04 106.23 20.04Q105.62 19.05 105.62 17.80ZM108.02 17.80L108.02 17.80Q108.02 18.51 108.32 19.05Q108.62 19.60 109.14 19.90Q109.65 20.20 110.29 20.20L110.29 20.20Q110.92 20.20 111.44 19.90Q111.96 19.60 112.25 19.05Q112.55 18.51 112.55 17.80L112.55 17.80Q112.55 17.09 112.25 16.54Q111.96 16 111.44 15.70Q110.92 15.40 110.29 15.40L110.29 15.40Q109.65 15.40 109.13 15.70Q108.62 16 108.32 16.54Q108.02 17.09 108.02 17.80ZM122.06 22L119.68 22L119.68 13.60L123.53 13.60Q124.66 13.60 125.51 13.98Q126.35 14.35 126.80 15.06Q127.26 15.76 127.26 16.71L127.26 16.71Q127.26 17.66 126.80 18.35Q126.35 19.05 125.51 19.42Q124.66 19.80 123.53 19.80L123.53 19.80L122.06 19.80L122.06 22ZM122.06 15.47L122.06 17.93L123.38 17.93Q124.11 17.93 124.49 17.61Q124.86 17.29 124.86 16.71L124.86 16.71Q124.86 16.12 124.49 15.80Q124.11 15.47 123.38 15.47L123.38 15.47L122.06 15.47ZM134.14 18.95L130.93 13.60L133.44 13.60L135.43 16.94L137.43 13.60L139.73 13.60L136.51 18.99L136.51 22L134.14 22L134.14 18.95ZM145.61 15.48L143.02 15.48L143.02 13.60L150.55 13.60L150.55 15.48L147.98 15.48L147.98 22L145.61 22L145.61 15.48ZM157.30 22L154.92 22L154.92 13.60L157.30 13.60L157.30 16.76L160.54 16.76L160.54 13.60L162.91 13.60L162.91 22L160.54 22L160.54 18.72L157.30 18.72L157.30 22ZM167.64 17.80L167.64 17.80Q167.64 16.55 168.25 15.55Q168.85 14.56 169.91 14.00Q170.98 13.43 172.31 13.43L172.31 13.43Q173.64 13.43 174.70 14.00Q175.76 14.56 176.37 15.55Q176.98 16.55 176.98 17.80L176.98 17.80Q176.98 19.05 176.37 20.04Q175.76 21.04 174.70 21.60Q173.64 22.17 172.31 22.17L172.31 22.17Q170.98 22.17 169.91 21.60Q168.85 21.04 168.25 20.04Q167.64 19.05 167.64 17.80ZM170.04 17.80L170.04 17.80Q170.04 18.51 170.34 19.05Q170.64 19.60 171.16 19.90Q171.67 20.20 172.31 20.20L172.31 20.20Q172.95 20.20 173.46 19.90Q173.98 19.60 174.28 19.05Q174.57 18.51 174.57 17.80L174.57 17.80Q174.57 17.09 174.28 16.54Q173.98 16 173.46 15.70Q172.95 15.40 172.31 15.40L172.31 15.40Q171.67 15.40 171.16 15.70Q170.64 16 170.34 16.54Q170.04 17.09 170.04 17.80ZM184.04 22L181.71 22L181.71 13.60L183.66 13.60L187.37 18.07L187.37 13.60L189.70 13.60L189.70 22L187.75 22L184.04 17.52L184.04 22Z" fill="#FFFFFF" x="84.6"/></svg>